<svg width="22" height="19" viewBox="0 0 22 19" fill="none" xmlns="http://www.w3.org/2000/svg">
<mask id="mask0" mask-type="alpha" maskUnits="userSpaceOnUse" x="0" y="0" width="22" height="19">
<path fill-rule="evenodd" clip-rule="evenodd" d="M0 0.000244141H22V18.98H0V0.000244141Z" fill="white"/>
</mask>
<g mask="url(#mask0)">
<path fill-rule="evenodd" clip-rule="evenodd" d="M11 14.9802C9.9 14.9802 9 14.0802 9 12.9802C9 11.8792 9.9 10.9802 11 10.9802C12.1 10.9802 13 11.8792 13 12.9802C13 14.0802 12.1 14.9802 11 14.9802ZM8 6.98024L11 2.58024L14 6.98024H8ZM16.21 6.98024L11.83 0.420244C11.64 0.140244 11.32 0.000244141 11 0.000244141C10.68 0.000244141 10.36 0.140244 10.17 0.430244L5.79 6.98024H1C0.45 6.98024 0 7.43024 0 7.98024C0 8.07024 0.01 8.16024 0.04 8.25024L2.58 17.5202C2.81 18.3602 3.58 18.9802 4.5 18.9802H17.5C18.42 18.9802 19.19 18.3602 19.43 17.5202L21.97 8.25024L22 7.98024C22 7.43024 21.55 6.98024 21 6.98024H16.21Z" fill="white"/>
</g>
</svg>
