<svg xmlns="http://www.w3.org/2000/svg" xmlns:xlink="http://www.w3.org/1999/xlink" width="22" height="18.98" viewBox="0 0 22 18.98">
  <defs>
    <clipPath id="clip-path">
      <path id="Clip_2" data-name="Clip 2" d="M0,0H22V18.98H0Z" transform="translate(0 0)" fill="none"/>
    </clipPath>
  </defs>
  <g id="Group_3" data-name="Group 3" transform="translate(0 0)">
    <path id="Clip_2-2" data-name="Clip 2" d="M0,0H22V18.98H0Z" transform="translate(0 0)" fill="none"/>
    <g id="Group_3-2" data-name="Group 3" clip-path="url(#clip-path)">
      <path id="Fill_1" data-name="Fill 1" d="M17.5,18.98H4.5a1.992,1.992,0,0,1-1.92-1.46L.04,8.25A.851.851,0,0,1,0,7.98a1,1,0,0,1,1-1H5.79L10.17.43A.981.981,0,0,1,11,0a.993.993,0,0,1,.83.42l4.38,6.56H21a1,1,0,0,1,1,1l-.03.27-2.54,9.27A2.019,2.019,0,0,1,17.5,18.98Zm-6.5-8a2,2,0,1,0,2,2A2,2,0,0,0,11,10.98Zm0-8.4L8,6.98h6Z" transform="translate(0 0)"/>
    </g>
  </g>
</svg>
