<svg width="20" height="20" viewBox="0 0 20 20" fill="none" xmlns="http://www.w3.org/2000/svg">
<path fill-rule="evenodd" clip-rule="evenodd" d="M10 17.2004C7.5 17.2004 5.29 15.9204 4 13.9794C4.03 11.9904 8 10.8994 10 10.8994C11.99 10.8994 15.97 11.9904 16 13.9794C14.71 15.9204 12.5 17.2004 10 17.2004ZM10 3.00037C11.66 3.00037 13 4.34037 13 6.00037C13 7.65937 11.66 9.00037 10 9.00037C8.34 9.00037 7 7.65937 7 6.00037C7 4.34037 8.34 3.00037 10 3.00037ZM10 0.000366211C4.48 0.000366211 0 4.48037 0 10.0004C0 15.5194 4.48 20.0004 10 20.0004C15.52 20.0004 20 15.5194 20 10.0004C20 4.48037 15.52 0.000366211 10 0.000366211Z" fill="white"/>
</svg>
